<svg width="49" height="49" viewBox="0 0 49 49" fill="none" xmlns="http://www.w3.org/2000/svg">
<path d="M49 24.5C49 38.031 38.031 49 24.5 49C10.969 49 0 38.031 0 24.5C0 10.969 10.969 0 24.5 0C38.031 0 49 10.969 49 24.5Z" fill="#191C32"/>
<path d="M10.0682 27.1075C8.90432 25.9435 8.90432 24.0565 10.0682 22.8925L21 11.9608C21 9.76111 18.3405 8.6595 16.7851 10.2149L4.10746 22.8925C2.94354 24.0565 2.94354 25.9435 4.10746 27.1075L17.0485 40.0485C18.5067 41.5067 21 40.474 21 38.4118L14.4804 31.5196L10.0682 27.1075Z" fill="white"/>
<path d="M21 38.4118V38.4118C21 40.474 18.5067 41.5067 17.0485 40.0485V40.0485M21 38.4118L14.4804 31.5196L10.0682 27.1075C8.90432 25.9435 8.90432 24.0565 10.0682 22.8925L21 11.9608M21 38.4118C17.8659 34.3238 14.2234 29.5091 14.4804 25C14.7855 19.6468 19.4497 14.7244 21 11.9608M21 38.4118C21 40.474 18.5067 41.5067 17.0485 40.0485M21 11.9608V11.9608C21 9.76111 18.3405 8.6595 16.7851 10.2149V10.2149M21 11.9608C21 9.76111 18.3405 8.6595 16.7851 10.2149M4.10746 22.8925L16.7851 10.2149M4.10746 22.8925C2.94354 24.0565 2.94354 25.9435 4.10746 27.1075M4.10746 22.8925V22.8925C2.94354 24.0565 2.94354 25.9435 4.10746 27.1075V27.1075M17.0485 40.0485L4.10746 27.1075" stroke="white" stroke-width="0.745098"/>
<path d="M38.9318 22.8925C40.0957 24.0565 40.0957 25.9435 38.9318 27.1075L28 38.0392C28 40.2389 30.6595 41.3405 32.2149 39.7851L44.8925 27.1075C46.0565 25.9435 46.0565 24.0565 44.8925 22.8925L31.9515 9.95148C30.4933 8.49328 28 9.52604 28 11.5882L34.5196 18.4804L38.9318 22.8925Z" fill="white"/>
<path d="M28 11.5882V11.5882C28 9.52604 30.4933 8.49328 31.9515 9.95148V9.95148M28 11.5882L34.5196 18.4804L38.9318 22.8925C40.0957 24.0565 40.0957 25.9435 38.9318 27.1075L28 38.0392M28 11.5882C31.1341 15.6762 34.7766 20.4909 34.5196 25C34.2145 30.3532 29.5503 35.2756 28 38.0392M28 11.5882C28 9.52604 30.4933 8.49328 31.9515 9.95148M28 38.0392V38.0392C28 40.2389 30.6595 41.3405 32.2149 39.7851V39.7851M28 38.0392C28 40.2389 30.6595 41.3405 32.2149 39.7851M44.8925 27.1075L32.2149 39.7851M44.8925 27.1075C46.0565 25.9435 46.0565 24.0565 44.8925 22.8925M44.8925 27.1075V27.1075C46.0565 25.9435 46.0565 24.0565 44.8925 22.8925V22.8925M31.9515 9.95148L44.8925 22.8925" stroke="white" stroke-width="0.745098"/>
</svg>
